<svg width="78" height="371" viewBox="0 0 78 371" fill="none" xmlns="http://www.w3.org/2000/svg">
<rect width="425.333" height="370" transform="translate(0 0.25)" fill="white" fill-opacity="0.04"/>
<path d="M61.5277 218.03H60.0237C59.469 218.03 59.0423 218.254 58.7437 218.702C58.4663 219.15 58.1677 219.374 57.8477 219.374H55.1917C54.7437 219.374 54.5197 219.161 54.5197 218.734V208.59C54.5197 208.142 54.7437 207.918 55.1917 207.918H66.3277C66.7757 207.918 66.9997 208.142 66.9997 208.59V211.022C66.9997 211.47 66.7757 211.694 66.3277 211.694H58.5837V216.398C58.9463 215.331 59.8423 214.798 61.2717 214.798H62.6157C65.9223 214.798 67.5757 216.451 67.5757 219.758V223.278C67.5757 224.942 67.117 226.233 66.1997 227.15C65.2823 228.046 63.9917 228.494 62.3277 228.494H59.5117C57.8263 228.494 56.525 228.046 55.6077 227.15C54.6903 226.254 54.2317 224.963 54.2317 223.278V222.638C54.2317 222.169 54.4557 221.934 54.9037 221.934H57.6237C58.0717 221.934 58.2957 222.169 58.2957 222.638V223.246C58.2957 223.907 58.4343 224.387 58.7117 224.686C59.0103 224.963 59.4903 225.102 60.1517 225.102H61.6557C62.3383 225.102 62.8397 224.963 63.1597 224.686C63.4797 224.387 63.6397 223.907 63.6397 223.246V220.366C63.6397 219.47 63.4903 218.862 63.1917 218.542C62.893 218.201 62.3383 218.03 61.5277 218.03ZM76.6272 224.974H78.5152C79.1978 224.974 79.6778 224.835 79.9552 224.558C80.2325 224.259 80.3712 223.769 80.3712 223.086V213.326C80.3712 212.643 80.2325 212.163 79.9552 211.886C79.6778 211.587 79.1978 211.438 78.5152 211.438H76.6272C75.9445 211.438 75.4645 211.587 75.1872 211.886C74.9098 212.163 74.7712 212.643 74.7712 213.326V223.086C74.7712 223.769 74.9098 224.259 75.1872 224.558C75.4645 224.835 75.9445 224.974 76.6272 224.974ZM79.1552 228.494H75.9552C74.2698 228.494 72.9685 228.046 72.0512 227.15C71.1338 226.254 70.6752 224.963 70.6752 223.278V213.134C70.6752 211.449 71.1338 210.158 72.0512 209.262C72.9685 208.366 74.2698 207.918 75.9552 207.918H79.1552C80.8192 207.918 82.1098 208.377 83.0272 209.294C83.9445 210.19 84.4032 211.47 84.4032 213.134V223.278C84.4032 224.942 83.9445 226.233 83.0272 227.15C82.1098 228.046 80.8192 228.494 79.1552 228.494ZM93.7834 224.974H95.6714C96.3541 224.974 96.8341 224.835 97.1114 224.558C97.3888 224.259 97.5274 223.769 97.5274 223.086V213.326C97.5274 212.643 97.3888 212.163 97.1114 211.886C96.8341 211.587 96.3541 211.438 95.6714 211.438H93.7834C93.1008 211.438 92.6208 211.587 92.3434 211.886C92.0661 212.163 91.9274 212.643 91.9274 213.326V223.086C91.9274 223.769 92.0661 224.259 92.3434 224.558C92.6208 224.835 93.1008 224.974 93.7834 224.974ZM96.3114 228.494H93.1114C91.4261 228.494 90.1248 228.046 89.2074 227.15C88.2901 226.254 87.8314 224.963 87.8314 223.278V213.134C87.8314 211.449 88.2901 210.158 89.2074 209.262C90.1248 208.366 91.4261 207.918 93.1114 207.918H96.3114C97.9754 207.918 99.2661 208.377 100.183 209.294C101.101 210.19 101.559 211.47 101.559 213.134V223.278C101.559 224.942 101.101 226.233 100.183 227.15C99.2661 228.046 97.9754 228.494 96.3114 228.494ZM108.764 228.494H106.044C105.596 228.494 105.372 228.27 105.372 227.822V208.59C105.372 208.142 105.596 207.918 106.044 207.918H108.764C109.212 207.918 109.436 208.142 109.436 208.59V217.71H109.5C109.67 217.198 110.001 216.537 110.492 215.726L115.356 208.59C115.633 208.142 116.049 207.918 116.604 207.918H119.74C119.974 207.918 120.113 207.993 120.156 208.142C120.22 208.27 120.166 208.441 119.996 208.654L113.916 217.07L120.7 227.694C120.849 227.95 120.87 228.153 120.764 228.302C120.678 228.43 120.486 228.494 120.188 228.494H117.852C117.105 228.494 116.604 228.27 116.348 227.822L111.452 219.982L109.436 222.35V227.822C109.436 228.27 109.212 228.494 108.764 228.494ZM131.887 216.558H136.239C136.517 216.558 136.709 216.622 136.815 216.75C136.922 216.857 136.975 217.049 136.975 217.326V219.118C136.975 219.609 136.73 219.854 136.239 219.854H131.887V224.27C131.887 224.782 131.631 225.038 131.119 225.038H129.231C128.719 225.038 128.463 224.782 128.463 224.27V219.854H124.111C123.621 219.854 123.375 219.609 123.375 219.118V217.326C123.375 217.049 123.429 216.857 123.535 216.75C123.642 216.622 123.834 216.558 124.111 216.558H128.463V212.174C128.463 211.662 128.719 211.406 129.231 211.406H131.119C131.631 211.406 131.887 211.662 131.887 212.174V216.558ZM156.788 228.494H153.3C151.615 228.494 150.314 228.046 149.396 227.15C148.479 226.254 148.02 224.963 148.02 223.278V213.134C148.02 211.449 148.479 210.158 149.396 209.262C150.314 208.366 151.615 207.918 153.3 207.918H156.788C158.452 207.918 159.743 208.377 160.66 209.294C161.599 210.19 162.068 211.47 162.068 213.134V214.638C162.068 215.107 161.834 215.342 161.364 215.342H158.676C158.228 215.342 158.004 215.107 158.004 214.638V213.326C158.004 212.643 157.855 212.163 157.556 211.886C157.279 211.587 156.799 211.438 156.116 211.438H153.94C153.279 211.438 152.799 211.587 152.5 211.886C152.223 212.163 152.084 212.643 152.084 213.326V223.086C152.084 223.769 152.223 224.259 152.5 224.558C152.799 224.835 153.279 224.974 153.94 224.974H156.116C156.799 224.974 157.279 224.835 157.556 224.558C157.855 224.259 158.004 223.769 158.004 223.086V221.774C158.004 221.305 158.228 221.07 158.676 221.07H161.364C161.834 221.07 162.068 221.305 162.068 221.774V223.278C162.068 224.942 161.599 226.233 160.66 227.15C159.743 228.046 158.452 228.494 156.788 228.494ZM173.047 228.494H170.199C168.514 228.494 167.213 228.046 166.295 227.15C165.378 226.254 164.919 224.963 164.919 223.278V217.39C164.919 215.705 165.378 214.414 166.295 213.518C167.213 212.622 168.514 212.174 170.199 212.174H173.047C174.711 212.174 176.002 212.633 176.919 213.55C177.858 214.446 178.327 215.726 178.327 217.39V223.278C178.327 224.942 177.858 226.233 176.919 227.15C176.002 228.046 174.711 228.494 173.047 228.494ZM170.807 225.006H172.439C173.122 225.006 173.602 224.867 173.879 224.59C174.178 224.313 174.327 223.833 174.327 223.15V217.518C174.327 216.835 174.178 216.355 173.879 216.078C173.602 215.801 173.122 215.662 172.439 215.662H170.807C170.125 215.662 169.645 215.801 169.367 216.078C169.09 216.355 168.951 216.835 168.951 217.518V223.15C168.951 223.833 169.09 224.313 169.367 224.59C169.645 224.867 170.125 225.006 170.807 225.006ZM184.912 228.494H182.192C181.744 228.494 181.52 228.27 181.52 227.822V212.846C181.52 212.398 181.744 212.174 182.192 212.174H184.912C185.36 212.174 185.584 212.398 185.584 212.846V213.902H185.712C186.182 212.75 187.227 212.174 188.848 212.174H189.872C193.222 212.174 194.896 213.913 194.896 217.39V227.822C194.896 228.27 194.662 228.494 194.192 228.494H191.504C191.056 228.494 190.832 228.27 190.832 227.822V217.582C190.832 216.899 190.683 216.419 190.384 216.142C190.107 215.843 189.627 215.694 188.944 215.694H187.792C186.32 215.694 185.584 216.505 185.584 218.126V227.822C185.584 228.27 185.36 228.494 184.912 228.494ZM208.67 225.646V227.854C208.67 228.089 208.617 228.259 208.51 228.366C208.425 228.451 208.254 228.494 207.998 228.494H203.23C201.545 228.494 200.244 228.046 199.326 227.15C198.409 226.254 197.95 224.963 197.95 223.278V217.39C197.95 215.705 198.409 214.414 199.326 213.518C200.244 212.622 201.545 212.174 203.23 212.174H207.998C208.446 212.174 208.67 212.398 208.67 212.846V215.054C208.67 215.289 208.617 215.459 208.51 215.566C208.425 215.651 208.254 215.694 207.998 215.694H203.87C203.209 215.694 202.729 215.843 202.43 216.142C202.153 216.419 202.014 216.899 202.014 217.582V223.086C202.014 223.769 202.153 224.259 202.43 224.558C202.729 224.835 203.209 224.974 203.87 224.974H207.998C208.446 224.974 208.67 225.198 208.67 225.646ZM217.315 228.494H216.259C214.616 228.494 213.368 228.046 212.515 227.15C211.683 226.254 211.267 224.963 211.267 223.278V212.846C211.267 212.398 211.491 212.174 211.939 212.174H214.659C215.107 212.174 215.331 212.398 215.331 212.846V223.086C215.331 223.769 215.469 224.259 215.747 224.558C216.045 224.835 216.525 224.974 217.187 224.974H218.371C219.843 224.974 220.579 224.163 220.579 222.542V212.846C220.579 212.398 220.803 212.174 221.251 212.174H223.939C224.408 212.174 224.643 212.398 224.643 212.846V227.822C224.643 228.27 224.408 228.494 223.939 228.494H221.251C220.803 228.494 220.579 228.27 220.579 227.822V226.766H220.451C220.216 227.342 219.8 227.779 219.203 228.078C218.605 228.355 217.976 228.494 217.315 228.494ZM231.569 228.494H228.849C228.401 228.494 228.177 228.27 228.177 227.822V212.846C228.177 212.398 228.401 212.174 228.849 212.174H231.569C232.017 212.174 232.241 212.398 232.241 212.846V213.934H232.369C232.603 213.358 233.019 212.921 233.617 212.622C234.214 212.323 234.843 212.174 235.505 212.174H236.657C237.083 212.174 237.297 212.398 237.297 212.846V215.054C237.297 215.31 237.243 215.491 237.137 215.598C237.051 215.683 236.891 215.715 236.657 215.694H234.449C232.977 215.694 232.241 216.526 232.241 218.19V227.822C232.241 228.27 232.017 228.494 231.569 228.494ZM242.725 228.494H240.005C239.557 228.494 239.333 228.27 239.333 227.822V212.846C239.333 212.398 239.557 212.174 240.005 212.174H242.725C243.173 212.174 243.397 212.398 243.397 212.846V213.934H243.525C243.76 213.358 244.176 212.921 244.773 212.622C245.37 212.323 246 212.174 246.661 212.174H247.813C248.24 212.174 248.453 212.398 248.453 212.846V215.054C248.453 215.31 248.4 215.491 248.293 215.598C248.208 215.683 248.048 215.715 247.813 215.694H245.605C244.133 215.694 243.397 216.526 243.397 218.19V227.822C243.397 228.27 243.173 228.494 242.725 228.494ZM262.521 228.494H255.449C253.764 228.494 252.463 228.046 251.545 227.15C250.628 226.254 250.169 224.963 250.169 223.278V217.39C250.169 215.705 250.628 214.414 251.545 213.518C252.463 212.622 253.764 212.174 255.449 212.174H257.977C259.663 212.174 260.964 212.622 261.881 213.518C262.799 214.414 263.257 215.705 263.257 217.39V221.454C263.257 221.902 263.033 222.126 262.585 222.126H254.553C254.297 222.126 254.169 222.243 254.169 222.478V223.182C254.169 223.843 254.308 224.323 254.585 224.622C254.884 224.899 255.375 225.038 256.057 225.038H262.521C262.969 225.038 263.193 225.273 263.193 225.742V227.854C263.193 228.089 263.14 228.259 263.033 228.366C262.948 228.451 262.777 228.494 262.521 228.494ZM254.553 219.406H258.905C259.14 219.406 259.257 219.289 259.257 219.054V217.518C259.257 216.835 259.119 216.355 258.841 216.078C258.564 215.801 258.084 215.662 257.401 215.662H256.057C255.375 215.662 254.895 215.801 254.617 216.078C254.34 216.355 254.201 216.835 254.201 217.518V219.054C254.201 219.289 254.319 219.406 254.553 219.406ZM269.694 228.494H266.974C266.526 228.494 266.302 228.27 266.302 227.822V212.846C266.302 212.398 266.526 212.174 266.974 212.174H269.694C270.142 212.174 270.366 212.398 270.366 212.846V213.902H270.494C270.963 212.75 272.008 212.174 273.63 212.174H274.654C278.003 212.174 279.678 213.913 279.678 217.39V227.822C279.678 228.27 279.443 228.494 278.974 228.494H276.286C275.838 228.494 275.614 228.27 275.614 227.822V217.582C275.614 216.899 275.464 216.419 275.166 216.142C274.888 215.843 274.408 215.694 273.726 215.694H272.574C271.102 215.694 270.366 216.505 270.366 218.126V227.822C270.366 228.27 270.142 228.494 269.694 228.494ZM283.404 215.694H282.124C281.868 215.694 281.686 215.651 281.58 215.566C281.494 215.481 281.452 215.31 281.452 215.054V212.846C281.452 212.398 281.676 212.174 282.124 212.174H283.404C283.638 212.174 283.756 212.057 283.756 211.822V208.782C283.756 208.334 283.99 208.11 284.46 208.11H287.148C287.596 208.11 287.82 208.334 287.82 208.782V211.822C287.82 212.057 287.948 212.174 288.204 212.174H290.7C291.148 212.174 291.372 212.398 291.372 212.846V215.054C291.372 215.289 291.318 215.459 291.212 215.566C291.126 215.651 290.956 215.694 290.7 215.694H288.204C287.948 215.694 287.82 215.811 287.82 216.046V223.118C287.82 223.779 287.969 224.259 288.268 224.558C288.566 224.835 289.057 224.974 289.74 224.974H291.02C291.468 224.974 291.692 225.198 291.692 225.646V227.854C291.692 228.089 291.638 228.259 291.532 228.366C291.446 228.451 291.276 228.494 291.02 228.494H289.068C287.382 228.494 286.07 228.046 285.132 227.15C284.214 226.254 283.756 224.974 283.756 223.31V216.046C283.756 215.811 283.638 215.694 283.404 215.694ZM312.212 207.918H314.9C315.37 207.918 315.604 208.131 315.604 208.558V223.278C315.604 224.942 315.135 226.233 314.196 227.15C313.279 228.046 311.988 228.494 310.324 228.494H306.804C305.119 228.494 303.818 228.046 302.9 227.15C301.983 226.254 301.524 224.963 301.524 223.278V208.59C301.524 208.142 301.748 207.918 302.196 207.918H304.916C305.364 207.918 305.588 208.142 305.588 208.59V223.086C305.588 223.769 305.727 224.259 306.004 224.558C306.303 224.835 306.783 224.974 307.444 224.974H309.652C310.335 224.974 310.815 224.835 311.092 224.558C311.391 224.259 311.54 223.769 311.54 223.086V208.59C311.54 208.142 311.764 207.918 312.212 207.918ZM325.446 228.494H319.366C318.94 228.494 318.726 228.27 318.726 227.822V225.774C318.726 225.539 318.769 225.379 318.854 225.294C318.94 225.187 319.11 225.134 319.366 225.134H324.71C325.756 225.134 326.278 224.814 326.278 224.174V224.014C326.278 223.502 325.841 223.011 324.966 222.542L321.798 220.782C320.71 220.227 319.91 219.63 319.398 218.99C318.886 218.35 318.63 217.529 318.63 216.526C318.63 215.033 319.025 213.934 319.814 213.23C320.604 212.526 321.841 212.174 323.526 212.174H328.87C329.297 212.174 329.51 212.398 329.51 212.846V214.926C329.51 215.161 329.468 215.331 329.382 215.438C329.297 215.523 329.126 215.566 328.87 215.566H324.422C323.377 215.566 322.854 215.833 322.854 216.366V216.526C322.854 216.995 323.313 217.475 324.23 217.966L327.462 219.886C328.572 220.483 329.35 221.102 329.798 221.742C330.246 222.361 330.47 223.182 330.47 224.206C330.47 227.065 328.796 228.494 325.446 228.494ZM345.334 228.494H338.262C336.576 228.494 335.275 228.046 334.358 227.15C333.44 226.254 332.982 224.963 332.982 223.278V217.39C332.982 215.705 333.44 214.414 334.358 213.518C335.275 212.622 336.576 212.174 338.262 212.174H340.79C342.475 212.174 343.776 212.622 344.694 213.518C345.611 214.414 346.07 215.705 346.07 217.39V221.454C346.07 221.902 345.846 222.126 345.398 222.126H337.366C337.11 222.126 336.982 222.243 336.982 222.478V223.182C336.982 223.843 337.12 224.323 337.398 224.622C337.696 224.899 338.187 225.038 338.87 225.038H345.334C345.782 225.038 346.006 225.273 346.006 225.742V227.854C346.006 228.089 345.952 228.259 345.846 228.366C345.76 228.451 345.59 228.494 345.334 228.494ZM337.366 219.406H341.718C341.952 219.406 342.07 219.289 342.07 219.054V217.518C342.07 216.835 341.931 216.355 341.654 216.078C341.376 215.801 340.896 215.662 340.214 215.662H338.87C338.187 215.662 337.707 215.801 337.43 216.078C337.152 216.355 337.014 216.835 337.014 217.518V219.054C337.014 219.289 337.131 219.406 337.366 219.406ZM352.506 228.494H349.786C349.338 228.494 349.114 228.27 349.114 227.822V212.846C349.114 212.398 349.338 212.174 349.786 212.174H352.506C352.954 212.174 353.178 212.398 353.178 212.846V213.934H353.306C353.541 213.358 353.957 212.921 354.554 212.622C355.152 212.323 355.781 212.174 356.442 212.174H357.594C358.021 212.174 358.234 212.398 358.234 212.846V215.054C358.234 215.31 358.181 215.491 358.074 215.598C357.989 215.683 357.829 215.715 357.594 215.694H355.386C353.914 215.694 353.178 216.526 353.178 218.19V227.822C353.178 228.27 352.954 228.494 352.506 228.494ZM366.446 228.494H360.366C359.94 228.494 359.726 228.27 359.726 227.822V225.774C359.726 225.539 359.769 225.379 359.854 225.294C359.94 225.187 360.11 225.134 360.366 225.134H365.71C366.756 225.134 367.278 224.814 367.278 224.174V224.014C367.278 223.502 366.841 223.011 365.966 222.542L362.798 220.782C361.71 220.227 360.91 219.63 360.398 218.99C359.886 218.35 359.63 217.529 359.63 216.526C359.63 215.033 360.025 213.934 360.814 213.23C361.604 212.526 362.841 212.174 364.526 212.174H369.87C370.297 212.174 370.51 212.398 370.51 212.846V214.926C370.51 215.161 370.468 215.331 370.382 215.438C370.297 215.523 370.126 215.566 369.87 215.566H365.422C364.377 215.566 363.854 215.833 363.854 216.366V216.526C363.854 216.995 364.313 217.475 365.23 217.966L368.462 219.886C369.572 220.483 370.35 221.102 370.798 221.742C371.246 222.361 371.47 223.182 371.47 224.206C371.47 227.065 369.796 228.494 366.446 228.494Z" fill="#EBA832"/>
</svg>
